<?xml version="1.0" encoding="UTF-8" standalone="no"?>
<!DOCTYPE svg PUBLIC "-//W3C//DTD SVG 1.1//EN"
 "http://www.w3.org/Graphics/SVG/1.1/DTD/svg11.dtd">
<!-- Generated by graphviz version 2.40.1 (20161225.0304)
 -->
<!-- Title: G Pages: 1 -->
<svg width="729pt" height="314pt"
 viewBox="0.00 0.00 728.56 314.00" xmlns="http://www.w3.org/2000/svg" xmlns:xlink="http://www.w3.org/1999/xlink">
<g id="graph0" class="graph" transform="scale(1 1) rotate(0) translate(4 310)">
<title>G</title>
<polygon fill="#ffffff" stroke="transparent" points="-4,4 -4,-310 724.5575,-310 724.5575,4 -4,4"/>
<!-- A0 -->
<g id="node1" class="node">
<title>A0</title>
<polygon fill="#fff8dc" stroke="#000000" points="93.1726,-268 -.0576,-268 -.0576,-232 99.1726,-232 99.1726,-262 93.1726,-268"/>
<polyline fill="none" stroke="#000000" points="93.1726,-268 93.1726,-262 "/>
<polyline fill="none" stroke="#000000" points="99.1726,-262 93.1726,-262 "/>
<text text-anchor="middle" x="49.5575" y="-253" font-family="Helvetica,sans-Serif" font-size="10.00" fill="#000000">Builder &#45; Design</text>
<text text-anchor="middle" x="49.5575" y="-241" font-family="Helvetica,sans-Serif" font-size="10.00" fill="#000000">Pattern</text>
</g>
<!-- A1 -->
<g id="node2" class="node">
<title>A1</title>
<polygon fill="#32cd32" stroke="transparent" points="117.5575,-194 117.5575,-306 207.5575,-306 207.5575,-194 117.5575,-194"/>
<polygon fill="none" stroke="#ffffff" points="117.5575,-274 117.5575,-306 207.5575,-306 207.5575,-274 117.5575,-274"/>
<text text-anchor="start" x="127.55" y="-287" font-family="Helvetica,sans-Serif" font-size="10.00" fill="#000000">BuilderInterface</text>
<polygon fill="none" stroke="#ffffff" points="117.5575,-194 117.5575,-274 207.5575,-274 207.5575,-194 117.5575,-194"/>
<text text-anchor="start" x="128.944" y="-255" font-family="Helvetica,sans-Serif" font-size="10.00" fill="#000000">createVehicle()</text>
<text text-anchor="start" x="136.7225" y="-243" font-family="Helvetica,sans-Serif" font-size="10.00" fill="#000000">addWheel()</text>
<text text-anchor="start" x="135.328" y="-231" font-family="Helvetica,sans-Serif" font-size="10.00" fill="#000000">addEngine()</text>
<text text-anchor="start" x="137.557" y="-219" font-family="Helvetica,sans-Serif" font-size="10.00" fill="#000000">addDoors()</text>
<text text-anchor="start" x="135.888" y="-207" font-family="Helvetica,sans-Serif" font-size="10.00" fill="#000000">getVehicle()</text>
</g>
<!-- A2 -->
<g id="node3" class="node">
<title>A2</title>
<polygon fill="none" stroke="#000000" points="66.5575,-112 66.5575,-144 153.5575,-144 153.5575,-112 66.5575,-112"/>
<text text-anchor="start" x="82.0025" y="-125" font-family="Helvetica,sans-Serif" font-size="10.00" fill="#000000">TruckBuilder</text>
<polygon fill="none" stroke="#000000" points="66.5575,-80 66.5575,-112 153.5575,-112 153.5575,-80 66.5575,-80"/>
<text text-anchor="start" x="77.274" y="-93" font-family="Helvetica,sans-Serif" font-size="10.00" fill="#000000"> private $truck </text>
<polygon fill="none" stroke="#000000" points="66.5575,0 66.5575,-80 153.5575,-80 153.5575,0 66.5575,0"/>
<text text-anchor="start" x="76.444" y="-61" font-family="Helvetica,sans-Serif" font-size="10.00" fill="#000000">createVehicle()</text>
<text text-anchor="start" x="84.2225" y="-49" font-family="Helvetica,sans-Serif" font-size="10.00" fill="#000000">addWheel()</text>
<text text-anchor="start" x="82.828" y="-37" font-family="Helvetica,sans-Serif" font-size="10.00" fill="#000000">addEngine()</text>
<text text-anchor="start" x="85.057" y="-25" font-family="Helvetica,sans-Serif" font-size="10.00" fill="#000000">addDoors()</text>
<text text-anchor="start" x="83.388" y="-13" font-family="Helvetica,sans-Serif" font-size="10.00" fill="#000000">getVehicle()</text>
</g>
<!-- A1&#45;&gt;A2 -->
<g id="edge1" class="edge">
<title>A1&#45;&gt;A2</title>
<path fill="none" stroke="#000000" d="M142.8899,-183.9466C139.0398,-171.0161 134.9832,-157.392 131.0764,-144.2711"/>
<polygon fill="#000000" stroke="#000000" points="145.788,-193.6797 138.6213,-185.3797 144.3611,-188.8876 142.9342,-184.0955 142.9342,-184.0955 142.9342,-184.0955 144.3611,-188.8876 147.2471,-182.8113 145.788,-193.6797 145.788,-193.6797"/>
</g>
<!-- A3 -->
<g id="node4" class="node">
<title>A3</title>
<polygon fill="none" stroke="#000000" points="171.5575,-112 171.5575,-144 258.5575,-144 258.5575,-112 171.5575,-112"/>
<text text-anchor="start" x="191.4475" y="-125" font-family="Helvetica,sans-Serif" font-size="10.00" fill="#000000">CarBuilder</text>
<polygon fill="none" stroke="#000000" points="171.5575,-80 171.5575,-112 258.5575,-112 258.5575,-80 171.5575,-80"/>
<text text-anchor="start" x="186.1635" y="-93" font-family="Helvetica,sans-Serif" font-size="10.00" fill="#000000"> private $car </text>
<polygon fill="none" stroke="#000000" points="171.5575,0 171.5575,-80 258.5575,-80 258.5575,0 171.5575,0"/>
<text text-anchor="start" x="181.444" y="-61" font-family="Helvetica,sans-Serif" font-size="10.00" fill="#000000">createVehicle()</text>
<text text-anchor="start" x="189.2225" y="-49" font-family="Helvetica,sans-Serif" font-size="10.00" fill="#000000">addWheel()</text>
<text text-anchor="start" x="187.828" y="-37" font-family="Helvetica,sans-Serif" font-size="10.00" fill="#000000">addEngine()</text>
<text text-anchor="start" x="190.057" y="-25" font-family="Helvetica,sans-Serif" font-size="10.00" fill="#000000">addDoors()</text>
<text text-anchor="start" x="188.388" y="-13" font-family="Helvetica,sans-Serif" font-size="10.00" fill="#000000">getVehicle()</text>
</g>
<!-- A1&#45;&gt;A3 -->
<g id="edge2" class="edge">
<title>A1&#45;&gt;A3</title>
<path fill="none" stroke="#000000" d="M181.854,-183.9466C185.6314,-171.0161 189.6115,-157.392 193.4446,-144.2711"/>
<polygon fill="#000000" stroke="#000000" points="179.0106,-193.6797 177.4954,-182.819 180.4127,-188.8803 181.8148,-184.0809 181.8148,-184.0809 181.8148,-184.0809 180.4127,-188.8803 186.1343,-185.3428 179.0106,-193.6797 179.0106,-193.6797"/>
</g>
<!-- A4 -->
<g id="node5" class="node">
<title>A4</title>
<polygon fill="#4169e1" stroke="transparent" points="301.5575,-202 301.5575,-298 401.5575,-298 401.5575,-202 301.5575,-202"/>
<polygon fill="none" stroke="#000000" points="301.5575,-266 301.5575,-298 401.5575,-298 401.5575,-266 301.5575,-266"/>
<text text-anchor="start" x="335.1655" y="-279" font-family="Helvetica,sans-Serif" font-size="10.00" fill="#000000">Vehicle</text>
<polygon fill="none" stroke="#000000" points="301.5575,-234 301.5575,-266 401.5575,-266 401.5575,-234 301.5575,-234"/>
<text text-anchor="start" x="322.6585" y="-247" font-family="Helvetica,sans-Serif" font-size="10.00" fill="#000000">private $data</text>
<polygon fill="none" stroke="#000000" points="301.5575,-202 301.5575,-234 401.5575,-234 401.5575,-202 301.5575,-202"/>
<text text-anchor="start" x="311.2745" y="-215" font-family="Helvetica,sans-Serif" font-size="10.00" fill="#000000">setPart(key,value)</text>
</g>
<!-- A5 -->
<g id="node6" class="node">
<title>A5</title>
<polygon fill="none" stroke="#000000" points="330.5575,-90 276.5575,-90 276.5575,-54 330.5575,-54 330.5575,-90"/>
<text text-anchor="middle" x="303.5575" y="-69" font-family="Helvetica,sans-Serif" font-size="10.00" fill="#000000">Car</text>
</g>
<!-- A4&#45;&gt;A5 -->
<g id="edge3" class="edge">
<title>A4&#45;&gt;A5</title>
<path fill="none" stroke="#000000" d="M335.9401,-192.0855C326.4124,-156.7536 314.8689,-113.9465 308.4566,-90.1673"/>
<polygon fill="#000000" stroke="#000000" points="338.568,-201.8306 331.6195,-193.3472 337.2662,-197.0031 335.9643,-192.1755 335.9643,-192.1755 335.9643,-192.1755 337.2662,-197.0031 340.3091,-191.0039 338.568,-201.8306 338.568,-201.8306"/>
</g>
<!-- A6 -->
<g id="node7" class="node">
<title>A6</title>
<polygon fill="none" stroke="#000000" points="402.5575,-90 348.5575,-90 348.5575,-54 402.5575,-54 402.5575,-90"/>
<text text-anchor="middle" x="375.5575" y="-69" font-family="Helvetica,sans-Serif" font-size="10.00" fill="#000000">Truck</text>
</g>
<!-- A4&#45;&gt;A6 -->
<g id="edge4" class="edge">
<title>A4&#45;&gt;A6</title>
<path fill="none" stroke="#000000" d="M359.4273,-191.6321C364.1793,-156.3881 369.9155,-113.8449 373.108,-90.1673"/>
<polygon fill="#000000" stroke="#000000" points="358.0522,-201.8306 354.9289,-191.319 358.7204,-196.8755 359.3886,-191.9203 359.3886,-191.9203 359.3886,-191.9203 358.7204,-196.8755 363.8482,-192.5217 358.0522,-201.8306 358.0522,-201.8306"/>
</g>
<!-- A7 -->
<g id="node8" class="node">
<title>A7</title>
<polygon fill="none" stroke="#000000" points="420.5575,-250 420.5575,-282 497.5575,-282 497.5575,-250 420.5575,-250"/>
<text text-anchor="start" x="441.561" y="-263" font-family="Helvetica,sans-Serif" font-size="10.00" fill="#000000">Director</text>
<polygon fill="none" stroke="#000000" points="420.5575,-218 420.5575,-250 497.5575,-250 497.5575,-218 420.5575,-218"/>
<text text-anchor="start" x="430.1695" y="-231" font-family="Helvetica,sans-Serif" font-size="10.00" fill="#000000">build(builder)</text>
</g>
<!-- A8 -->
<g id="node9" class="node">
<title>A8</title>
<polygon fill="none" stroke="#000000" points="574.1816,-268 514.9334,-268 514.9334,-232 574.1816,-232 574.1816,-268"/>
<text text-anchor="middle" x="544.5575" y="-247" font-family="Helvetica,sans-Serif" font-size="10.00" fill="#000000">Engine</text>
</g>
<!-- A9 -->
<g id="node10" class="node">
<title>A9</title>
<polygon fill="none" stroke="#000000" points="648.8935,-268 592.2215,-268 592.2215,-232 648.8935,-232 648.8935,-268"/>
<text text-anchor="middle" x="620.5575" y="-247" font-family="Helvetica,sans-Serif" font-size="10.00" fill="#000000">Wheel</text>
</g>
<!-- A10 -->
<g id="node11" class="node">
<title>A10</title>
<polygon fill="none" stroke="#000000" points="720.5575,-268 666.5575,-268 666.5575,-232 720.5575,-232 720.5575,-268"/>
<text text-anchor="middle" x="693.5575" y="-247" font-family="Helvetica,sans-Serif" font-size="10.00" fill="#000000">Door</text>
</g>
</g>
</svg>
