<?xml version="1.0" encoding="UTF-8" standalone="no"?>
<!DOCTYPE svg PUBLIC "-//W3C//DTD SVG 1.1//EN"
 "http://www.w3.org/Graphics/SVG/1.1/DTD/svg11.dtd">
<!-- Generated by graphviz version 2.40.1 (20161225.0304)
 -->
<!-- Title: G Pages: 1 -->
<svg width="426pt" height="170pt"
 viewBox="0.00 0.00 426.45 170.00" xmlns="http://www.w3.org/2000/svg" xmlns:xlink="http://www.w3.org/1999/xlink">
<g id="graph0" class="graph" transform="scale(1 1) rotate(0) translate(4 166)">
<title>G</title>
<polygon fill="#ffffff" stroke="transparent" points="-4,4 -4,-166 422.448,-166 422.448,4 -4,4"/>
<!-- A0 -->
<g id="node1" class="node">
<title>A0</title>
<polygon fill="#fff8dc" stroke="#000000" points="100.8441,-142 .0519,-142 .0519,-106 106.8441,-106 106.8441,-136 100.8441,-142"/>
<polyline fill="none" stroke="#000000" points="100.8441,-142 100.8441,-136 "/>
<polyline fill="none" stroke="#000000" points="106.8441,-136 100.8441,-136 "/>
<text text-anchor="middle" x="53.448" y="-127" font-family="Helvetica,sans-Serif" font-size="10.00" fill="#000000">Abstract Factory &#45;</text>
<text text-anchor="middle" x="53.448" y="-115" font-family="Helvetica,sans-Serif" font-size="10.00" fill="#000000">Design Pattern</text>
</g>
<!-- A1 -->
<g id="node2" class="node">
<title>A1</title>
<polygon fill="#32cd32" stroke="transparent" points="124.448,-92 124.448,-156 228.448,-156 228.448,-92 124.448,-92"/>
<polygon fill="none" stroke="#ffffff" points="124.448,-124 124.448,-156 228.448,-156 228.448,-124 124.448,-124"/>
<text text-anchor="start" x="161.7255" y="-137" font-family="Helvetica,sans-Serif" font-size="10.00" fill="#000000">Parser</text>
<polygon fill="none" stroke="#ffffff" points="124.448,-92 124.448,-124 228.448,-124 228.448,-92 124.448,-92"/>
<text text-anchor="start" x="133.9515" y="-105" font-family="Helvetica,sans-Serif" font-size="10.00" fill="#000000">parser(string):array</text>
</g>
<!-- A2 -->
<g id="node3" class="node">
<title>A2</title>
<polygon fill="none" stroke="#000000" points="165.6128,-36 91.2832,-36 91.2832,0 165.6128,0 165.6128,-36"/>
<text text-anchor="middle" x="128.448" y="-15" font-family="Helvetica,sans-Serif" font-size="10.00" fill="#000000">CsvParser</text>
</g>
<!-- A1&#45;&gt;A2 -->
<g id="edge1" class="edge">
<title>A1&#45;&gt;A2</title>
<path fill="none" stroke="#000000" d="M157.7192,-82.6405C150.4196,-66.5206 142.4356,-48.8894 136.6526,-36.1185"/>
<polygon fill="#000000" stroke="#000000" points="161.9162,-91.9088 153.6917,-84.6556 159.8536,-87.3541 157.791,-82.7993 157.791,-82.7993 157.791,-82.7993 159.8536,-87.3541 161.8903,-80.943 161.9162,-91.9088 161.9162,-91.9088"/>
</g>
<!-- A3 -->
<g id="node4" class="node">
<title>A3</title>
<polygon fill="none" stroke="#000000" points="262.5122,-36 184.3838,-36 184.3838,0 262.5122,0 262.5122,-36"/>
<text text-anchor="middle" x="223.448" y="-15" font-family="Helvetica,sans-Serif" font-size="10.00" fill="#000000">JsonParser</text>
</g>
<!-- A1&#45;&gt;A3 -->
<g id="edge2" class="edge">
<title>A1&#45;&gt;A3</title>
<path fill="none" stroke="#000000" d="M194.7867,-82.6405C201.9342,-66.5206 209.7518,-48.8894 215.4143,-36.1185"/>
<polygon fill="#000000" stroke="#000000" points="190.6771,-91.9088 190.6168,-80.9431 192.7038,-87.338 194.7305,-82.7672 194.7305,-82.7672 194.7305,-82.7672 192.7038,-87.338 198.8443,-84.5912 190.6771,-91.9088 190.6771,-91.9088"/>
</g>
<!-- A4 -->
<g id="node5" class="node">
<title>A4</title>
<polygon fill="none" stroke="#000000" points="246.448,-130 246.448,-162 418.448,-162 418.448,-130 246.448,-130"/>
<text text-anchor="start" x="301.058" y="-143" font-family="Helvetica,sans-Serif" font-size="10.00" fill="#000000">ParserFactory</text>
<polygon fill="none" stroke="#000000" points="246.448,-86 246.448,-130 418.448,-130 418.448,-86 246.448,-86"/>
<text text-anchor="start" x="256.3355" y="-111" font-family="Helvetica,sans-Serif" font-size="10.00" fill="#000000">createCsvParser(bool): CsvParser</text>
<text text-anchor="start" x="261.8845" y="-99" font-family="Helvetica,sans-Serif" font-size="10.00" fill="#000000">createJsonParser(): JsonParser</text>
</g>
</g>
</svg>
